<?xml version="1.0" standalone="no"?>
<!DOCTYPE svg PUBLIC "-//W3C//DTD SVG 20010904//EN"
 "http://www.w3.org/TR/2001/REC-SVG-20010904/DTD/svg10.dtd">
<svg version="1.0" xmlns="http://www.w3.org/2000/svg"
 width="300.000000pt" height="258.000000pt" viewBox="0 0 300.000000 258.000000"
 preserveAspectRatio="xMidYMid meet">
<metadata>
Created by potrace 1.10, written by Peter Selinger 2001-2011
</metadata>
<g transform="translate(0.000000,258.000000) scale(0.100000,-0.100000)"
fill="#000000" stroke="none">
<path d="M1182 2478 c-51 -11 -108 -63 -136 -123 -70 -146 -96 -476 -52 -657
l13 -58 -55 -27 c-68 -34 -160 -117 -202 -183 -117 -182 -110 -420 16 -586
l32 -41 -30 -28 c-38 -36 -48 -63 -48 -129 0 -111 112 -256 250 -322 44 -22
60 -34 60 -50 0 -41 85 -93 220 -136 98 -30 304 -33 388 -5 49 16 54 16 77 1
59 -38 256 5 399 88 85 49 209 171 254 249 17 31 37 79 44 108 7 30 19 56 27
59 43 15 76 50 104 110 27 57 31 80 35 174 7 173 -34 290 -143 408 -27 29 -34
46 -38 94 -19 197 -215 355 -465 375 l-72 6 34 48 c53 74 114 207 132 286 20
88 13 143 -25 203 -56 88 -173 113 -281 60 -65 -31 -153 -113 -202 -188 l-43
-65 -7 58 c-25 193 -141 304 -286 271z m-47 -85 c-15 -16 -36 -47 -47 -70 -22
-50 -30 -56 -18 -13 10 35 66 110 82 110 6 0 -2 -12 -17 -27z m182 -39 c39
-44 60 -127 69 -271 6 -91 4 -106 -20 -180 -15 -44 -32 -111 -39 -148 l-13
-67 -79 -3 c-44 -1 -94 -6 -111 -10 l-31 -7 -14 64 c-20 90 -17 330 5 438 9
47 28 109 41 137 45 99 129 120 192 47z m626 -2 c19 -20 50 -92 44 -99 -3 -2
-10 11 -16 29 -6 18 -23 45 -38 60 -15 15 -22 28 -16 28 5 0 17 -8 26 -18z
m-32 -43 c66 -71 25 -232 -114 -439 -66 -100 -115 -159 -209 -255 l-78 -80 61
-59 c105 -102 149 -198 149 -327 0 -195 -153 -339 -395 -371 -80 -11 -86 -10
-142 14 -85 38 -139 51 -226 52 -75 1 -80 3 -104 31 -14 17 -39 59 -56 95 -30
61 -32 71 -32 180 0 110 2 119 32 180 62 125 200 231 340 261 50 10 154 9 238
-3 18 -3 21 5 27 71 21 207 118 432 247 572 69 76 127 109 189 109 36 0 49 -6
73 -31z m-485 -76 c18 -59 39 -93 58 -93 5 0 30 19 55 43 45 43 46 37 5 -19
-13 -17 -44 -73 -69 -125 -25 -51 -48 -95 -50 -98 -3 -2 -5 45 -5 105 0 60 -4
136 -10 169 -11 67 -12 75 -6 75 2 0 12 -26 22 -57z m571 -43 c1 -28 -2 -50
-6 -50 -4 0 -7 -9 -8 -20 -1 -11 -9 -35 -17 -52 -9 -17 -16 -36 -16 -42 0 -6
-22 -49 -50 -96 -52 -90 -60 -122 -34 -147 18 -19 4 -33 -34 -33 -38 0 -75
-25 -128 -87 -77 -89 -87 -108 -81 -150 l6 -37 -31 32 -32 31 72 73 c150 154
279 357 327 516 3 12 10 22 14 22 5 0 6 20 3 45 -2 25 -1 45 4 45 5 0 10 -23
11 -50z m53 -504 c126 -43 223 -131 250 -227 8 -27 7 -30 -8 -24 -139 59 -266
58 -402 -6 -36 -16 -77 -42 -91 -55 l-27 -26 -22 45 c-13 25 -43 68 -67 96
-26 30 -39 52 -33 56 6 4 40 41 76 83 40 47 76 80 92 84 44 11 160 -2 232 -26z
m-959 -46 c23 0 5 -20 -27 -30 -41 -14 -53 -7 -36 20 7 11 12 32 12 47 l0 28
21 -32 c12 -18 25 -33 30 -33z m266 -6 c-3 -3 -16 -2 -30 2 l-26 6 27 28 27
27 3 -29 c2 -17 1 -32 -1 -34z m875 9 c18 -16 39 -35 46 -43 25 -30 64 -101
58 -107 -3 -3 -10 6 -16 21 -14 39 -69 104 -110 132 -19 13 -29 24 -23 24 6 0
26 -12 45 -27z m-1369 -158 c-31 -30 -58 -53 -60 -51 -6 5 98 106 108 106 5 0
-17 -25 -48 -55z m1497 -56 c0 -49 19 -94 60 -139 42 -47 73 -102 101 -180 20
-54 24 -83 23 -171 -2 -97 -4 -112 -33 -171 -22 -47 -42 -72 -70 -91 -32 -21
-43 -37 -60 -90 -37 -111 -115 -211 -232 -300 -131 -99 -327 -152 -433 -117
-26 8 -45 9 -64 2 -178 -68 -511 -5 -589 110 -17 25 -53 56 -93 80 -76 45
-160 131 -189 194 -32 67 -29 140 9 190 33 44 37 71 15 100 -28 37 -15 48 15
13 16 -20 43 -42 60 -49 l31 -13 -50 -28 c-63 -37 -81 -62 -81 -119 0 -89 82
-202 188 -258 96 -51 142 -42 224 46 55 59 87 120 95 183 5 43 4 47 -33 77
-21 18 -36 32 -34 32 3 0 35 3 73 6 37 4 67 3 67 -2 0 -4 -9 -17 -20 -29 -11
-12 -22 -30 -24 -41 -2 -10 -7 -39 -11 -64 -11 -68 -52 -144 -107 -197 -112
-108 -111 -107 -76 -140 64 -58 232 -98 378 -90 114 7 154 22 204 78 60 66 70
98 71 229 0 98 -3 122 -22 161 -23 47 -74 107 -108 125 -29 15 -100 17 -141 4
-59 -20 -49 -5 20 29 142 69 227 187 234 324 5 73 -10 159 -34 205 -21 41 -17
54 11 27 29 -30 51 -31 90 -5 37 25 117 62 122 56 2 -2 -23 -20 -56 -40 -33
-21 -74 -53 -90 -72 -28 -35 -28 -38 -25 -131 2 -52 8 -101 15 -109 8 -10 36
-13 115 -11 115 2 141 -7 41 -15 -71 -6 -172 -49 -222 -96 -40 -36 -75 -86
-75 -105 0 -9 24 -43 53 -77 109 -125 137 -322 66 -465 -53 -106 20 -132 189
-68 90 33 129 54 197 107 73 57 133 129 171 205 42 82 46 188 10 266 -33 74
-119 158 -198 195 -35 17 -70 30 -78 30 -8 0 -22 5 -30 11 -11 7 -1 9 37 5
107 -9 242 -116 300 -238 40 -81 65 -95 100 -52 31 39 44 83 50 178 6 76 -11
215 -27 226 -4 3 -17 25 -29 48 -30 60 -92 124 -165 173 -42 28 -53 39 -35 35
25 -6 80 24 78 42 -3 20 2 32 11 27 6 -3 10 -24 10 -46z m-122 -71 c69 -26
160 -110 199 -185 41 -76 58 -164 50 -259 -7 -72 -40 -174 -58 -174 -4 0 -13
18 -19 39 -14 52 -82 152 -133 197 -119 102 -315 143 -439 91 l-33 -14 1 99
c2 99 2 100 35 134 90 93 258 123 397 72z m-123 -397 c78 -36 129 -81 178
-156 37 -58 39 -62 35 -135 -2 -58 -10 -88 -32 -135 -36 -72 -146 -185 -228
-233 -69 -41 -182 -80 -256 -89 l-56 -6 23 32 c64 89 85 257 46 371 -23 71
-74 150 -118 186 l-36 28 41 48 c101 121 260 156 403 89z m-947 -257 l93 -38
-6 -36 c-16 -88 -70 -172 -141 -220 l-44 -31 -55 25 c-107 49 -205 167 -205
247 0 73 51 101 175 96 76 -4 104 -10 183 -43z m456 32 c68 -28 126 -149 126
-261 0 -120 -48 -211 -129 -249 -38 -17 -65 -21 -156 -21 -119 0 -197 16 -295
61 l-55 25 30 22 c116 84 192 201 202 314 l5 60 59 12 c32 6 78 20 101 31 53
23 69 24 112 6z"/>
<path d="M912 1228 c-21 -21 -14 -66 12 -83 50 -33 104 20 72 70 -18 27 -63
34 -84 13z"/>
<path d="M1383 1184 c-15 -24 -15 -29 -2 -53 27 -49 99 -32 99 23 0 28 -29 56
-58 56 -12 0 -29 -11 -39 -26z"/>
<path d="M1128 1135 c-41 -47 -47 -69 -21 -79 10 -4 27 3 45 21 l29 28 21 -27
c21 -30 55 -37 64 -13 8 19 -63 115 -84 115 -10 -1 -34 -20 -54 -45z"/>
<path d="M822 1121 c-20 -12 -10 -45 14 -49 29 -4 51 23 34 43 -14 17 -29 19
-48 6z"/>
<path d="M1490 1045 c-10 -12 -10 -18 0 -30 17 -21 54 -15 58 9 7 32 -36 48
-58 21z"/>
<path d="M1907 1281 c-9 -21 -18 -67 -21 -102 l-5 -64 18 85 c10 47 22 93 26
103 4 9 5 17 2 17 -3 0 -12 -17 -20 -39z"/>
<path d="M2012 1311 c-56 -14 -59 -29 -5 -20 81 13 145 10 222 -11 40 -12 76
-19 78 -16 2 2 -21 14 -53 25 -63 24 -190 35 -242 22z"/>
<path d="M2387 1147 c14 -52 13 -170 -3 -212 -6 -16 -4 -18 6 -8 29 27 21 249
-10 268 -4 2 -1 -19 7 -48z"/>
<path d="M1812 886 c-34 -33 -62 -65 -62 -70 0 -5 26 16 58 46 31 30 64 57 72
60 10 4 12 9 5 16 -7 6 -31 -11 -73 -52z"/>
<path d="M1902 915 c3 -3 32 -13 65 -21 74 -19 113 -34 113 -45 0 -5 9 -13 20
-19 23 -12 60 2 60 23 0 8 -3 8 -9 -1 -12 -20 -55 -11 -59 12 -3 11 4 26 14
33 10 7 14 16 11 20 -4 3 -16 -3 -27 -15 -18 -19 -23 -20 -52 -8 -36 15 -147
32 -136 21z"/>
<path d="M2237 692 c-70 -124 -174 -225 -298 -288 -64 -32 -64 -33 -57 -39 6
-6 77 28 141 69 76 49 186 170 226 249 19 37 32 69 30 71 -2 2 -21 -26 -42
-62z"/>
<path d="M907 683 c-4 -6 24 -12 71 -16 42 -3 97 -13 121 -22 49 -17 61 -18
61 -7 0 23 -240 65 -253 45z"/>
<path d="M860 640 c0 -26 110 -117 161 -133 55 -18 106 -22 126 -9 7 4 -11 8
-40 8 -68 0 -138 34 -199 97 -27 26 -48 43 -48 37z"/>
<path d="M1540 649 c-36 -10 -82 -18 -103 -18 -25 -1 -36 -5 -31 -12 6 -10 31
-9 128 7 31 5 110 44 86 42 -8 0 -44 -9 -80 -19z"/>
<path d="M1686 441 c-66 -69 -242 -115 -358 -93 -72 13 -89 8 -29 -8 48 -13
209 -12 217 1 3 5 16 9 30 9 47 0 142 59 165 103 14 24 7 21 -25 -12z"/>
<path d="M2085 2137 c22 -72 6 -148 -56 -269 -11 -22 -15 -37 -8 -33 22 14 81
157 86 210 3 29 0 68 -6 88 -18 52 -32 56 -16 4z"/>
<path d="M2388 2059 l-27 -29 31 -31 31 -31 29 30 29 29 -29 31 c-17 18 -32
31 -34 31 -1 -1 -15 -14 -30 -30z"/>
<path d="M704 1964 c-4 -14 -17 -30 -30 -34 -31 -12 -33 -50 -3 -50 13 0 23
-10 30 -30 7 -18 18 -30 29 -30 11 0 22 12 29 30 6 20 17 30 30 30 11 0 22 4
25 9 10 16 -5 41 -26 41 -12 0 -23 11 -29 30 -14 38 -46 41 -55 4z m46 -65 c0
-5 -9 -9 -20 -9 -19 0 -27 20 -13 33 7 8 33 -11 33 -24z"/>
<path d="M2268 1950 l-28 -29 30 -30 30 -29 30 30 30 30 -31 29 c-17 16 -32
29 -33 29 0 -1 -13 -14 -28 -30z"/>
<path d="M2390 1866 c-27 -33 18 -72 48 -42 13 13 14 20 6 34 -15 23 -38 26
-54 8z"/>
<path d="M2635 986 c53 -170 15 -332 -106 -458 -28 -29 -65 -82 -82 -118 -75
-157 -203 -272 -386 -346 -101 -40 -111 -45 -76 -38 57 11 178 67 252 117 90
60 171 154 219 255 20 41 57 94 85 123 90 93 134 211 127 343 -3 52 -11 92
-22 111 -9 17 -15 21 -11 11z"/>
<path d="M880 324 c0 -30 65 -93 133 -130 41 -22 33 -12 -25 31 -29 20 -65 54
-80 73 -16 19 -28 31 -28 26z"/>
<path d="M1090 155 c0 -6 9 -25 20 -43 15 -24 40 -42 85 -63 36 -16 73 -29 82
-28 10 0 2 6 -18 14 -73 27 -119 56 -144 92 -14 21 -25 33 -25 28z"/>
</g>
</svg>
